# xmcd
#
# Track frame offsets: 
#        150
#        25015
#        52282
#        77300
#        93292
#        108012
#        118010
#        131740
#        146637
#        160855
#
# Disc length: 2446 seconds
#
# Revision: 3
# Processed by: cddbd v1.5.2PL0 Copyright (c) Steve Scherf et al.
# Submitted via: ExactAudioCopy v0.95b3
#
DISCID=7a098c0a
DTITLE=Albert King, Steve Cropper, Pop Staples - Jammed Together
DYEAR=1990
DGENRE=Blues
TTITLE0=What'd I Say
TTITLE1=Tupelot
TTITLE2=Opus de Soul
TTITLE3=Baby, What You Want Me To Do
TTITLE4=Big Bird
TTITLE5=Homer's Theme
TTITLE6=Trashy Dog
TTITLE7=Don't Turn Your Heater Down
TTITLE8=Watert
TTITLE9=Knock On Wood
EXTD=
EXTT0=
EXTT1=
EXTT2=
EXTT3=
EXTT4=
EXTT5=
EXTT6=
EXTT7=
EXTT8=
EXTT9=
PLAYORDER=
